<?xml version="1.0" encoding="UTF-8" standalone="no"?>
<!DOCTYPE svg PUBLIC "-//W3C//DTD SVG 1.1//EN" "http://www.w3.org/Graphics/SVG/1.1/DTD/svg11.dtd">
<svg width="100%" height="100%" viewBox="0 0 1628 281" version="1.1" xmlns="http://www.w3.org/2000/svg" xmlns:xlink="http://www.w3.org/1999/xlink" xml:space="preserve" xmlns:serif="http://www.serif.com/" style="fill-rule:evenodd;clip-rule:evenodd;stroke-linejoin:round;stroke-miterlimit:2;">
    <g transform="matrix(1,0,0,1,-1677.8,-1638.45)">
        <g transform="matrix(8.33333,0,0,8.33333,0,0)">
            <g transform="matrix(1,0,0,1,249.608,211.349)">
                <path d="M0,4.202L-8.087,-4.963L-12.012,-4.963L-12.012,9.165L-9.185,9.165L-9.185,-1.938L0,8.473L9.185,-1.938L9.185,9.165L12.013,9.165L12.013,-4.963L8.087,-4.963L0,4.202Z" style="fill:rgb(140,140,140);fill-rule:nonzero;"/>
            </g>
        </g>
        <g transform="matrix(8.33333,0,0,8.33333,0,0)">
            <g transform="matrix(1,0,0,1,0,12.003)">
                <rect x="263.697" y="205.683" width="16.254" height="2.828" style="fill:rgb(140,140,140);"/>
            </g>
        </g>
        <g transform="matrix(8.33333,0,0,8.33333,0,0)">
            <g transform="matrix(1,0,0,1,0,-10.607)">
                <rect x="263.697" y="216.993" width="16.254" height="2.818" style="fill:rgb(140,140,140);"/>
            </g>
        </g>
        <g transform="matrix(8.33333,0,0,8.33333,0,0)">
            <g transform="matrix(1,0,0,1,0,0.693)">
                <rect x="263.697" y="211.338" width="16.254" height="2.828" style="fill:rgb(140,140,140);"/>
            </g>
        </g>
        <g transform="matrix(8.33333,0,0,8.33333,0,0)">
            <g transform="matrix(1,0,0,1,282.027,217.696)">
                <path d="M0,-8.492L6.595,-8.492L6.595,2.818L9.422,2.818L9.422,-8.492L16.017,-8.492L16.017,-11.31L0,-11.31L0,-8.492Z" style="fill:rgb(140,140,140);fill-rule:nonzero;"/>
            </g>
        </g>
        <g transform="matrix(8.33333,0,0,8.33333,0,0)">
            <g transform="matrix(1,0,0,1,314.248,213.455)">
                <path d="M0,-0.01L-11.301,-0.01L-11.301,-4.251L-2.818,-4.251C-2.04,-4.251 -1.374,-3.975 -0.821,-3.421C-0.274,-2.867 0,-2.202 0,-1.424L0,-0.01ZM-2.818,-7.069L-14.128,-7.069L-14.128,7.059L-11.301,7.059L-11.301,2.818L0,2.818L0,7.059L2.828,7.059L2.828,-1.424C2.828,-2.979 2.277,-4.311 1.176,-5.418C0.069,-6.519 -1.262,-7.069 -2.818,-7.069" style="fill:rgb(140,140,140);fill-rule:nonzero;"/>
            </g>
        </g>
        <g transform="matrix(8.33333,0,0,8.33333,0,0)">
            <g transform="matrix(1,0,0,1,324.175,212.041)">
                <path d="M0,2.818C0,4.38 0.554,5.712 1.661,6.812C2.762,7.919 4.093,8.473 5.655,8.473L16.956,8.473L16.956,-0.01L7.069,-0.01L7.069,2.818L14.128,2.818L14.128,5.646L5.655,5.646C4.877,5.646 4.212,5.369 3.658,4.815C3.104,4.261 2.828,3.596 2.828,2.818L2.828,-2.837L16.956,-2.837L16.956,-5.655L0,-5.655L0,2.818Z" style="fill:rgb(140,140,140);fill-rule:nonzero;"/>
            </g>
        </g>
        <g transform="matrix(8.33333,0,0,8.33333,0,0)">
            <g transform="matrix(1,0,0,1,357.335,213.455)">
                <path d="M0,-0.01L-11.301,-0.01L-11.301,-1.424C-11.301,-2.202 -11.024,-2.867 -10.47,-3.421C-9.917,-3.975 -9.251,-4.251 -8.473,-4.251L0,-4.251L0,-0.01ZM-12.467,-5.418C-13.575,-4.311 -14.128,-2.979 -14.128,-1.424L-14.128,7.059L-11.301,7.059L-11.301,2.818L0,2.818L0,7.059L2.828,7.059L2.828,-7.069L-8.473,-7.069C-10.035,-7.069 -11.367,-6.519 -12.467,-5.418" style="fill:rgb(140,140,140);fill-rule:nonzero;"/>
            </g>
        </g>
        <g transform="matrix(8.33333,0,0,8.33333,0,0)">
            <g transform="matrix(1,0,0,1,362.239,217.696)">
                <path d="M0,-8.492L6.595,-8.492L6.595,2.818L9.422,2.818L9.422,-8.492L16.017,-8.492L16.017,-11.31L0,-11.31L0,-8.492Z" style="fill:rgb(140,140,140);fill-rule:nonzero;"/>
            </g>
        </g>
        <g transform="matrix(8.33333,0,0,8.33333,0,0)">
            <g transform="matrix(1,0,0,1,0,0.693)">
                <rect x="380.332" y="211.338" width="16.254" height="2.828" style="fill:rgb(140,140,140);"/>
            </g>
        </g>
        <g transform="matrix(8.33333,0,0,8.33333,0,0)">
            <g transform="matrix(1,0,0,1,0,12.003)">
                <rect x="380.332" y="205.683" width="16.254" height="2.828" style="fill:rgb(140,140,140);"/>
            </g>
        </g>
        <g transform="matrix(8.33333,0,0,8.33333,0,0)">
            <g transform="matrix(1,0,0,1,0,-10.607)">
                <rect x="380.332" y="216.993" width="16.254" height="2.818" style="fill:rgb(140,140,140);"/>
            </g>
        </g>
        <g transform="matrix(8.33333,0,0,8.33333,0,0)">
            <g transform="matrix(1,0,0,1,214.972,198.213)">
                <path d="M0,30.474L-12.188,22.784L-6.481,19.186L-1.282,22.462C-0.499,22.956 0.499,22.956 1.282,22.462L6.477,19.186L12.185,22.782L0,30.474ZM12.189,7.695L1.279,14.571C0.496,15.065 -0.502,15.064 -1.286,14.57L-12.189,7.691L0,-0L12.189,7.695ZM-13.636,7.005L-13.636,23.469L0,32.073L13.637,23.464L13.637,7.01L0,-1.599L-13.636,7.005Z" style="fill:rgb(140,140,140);fill-rule:nonzero;"/>
            </g>
        </g>
    </g>
</svg>
